inDegrees=yes
name=ik_S41_A07_T01
DataType=double
version=3
OpenSimVersion=4.3-2021-08-27-4bc7ad9
endheader
time	pelvis_tilt	pelvis_list	pelvis_rotation	pelvis_tx	pelvis_ty	pelvis_tz	hip_flexion_r	hip_adduction_r	hip_rotation_r	knee_angle_r	knee_angle_r_beta	ankle_angle_r	subtalar_angle_r	mtp_angle_r	hip_flexion_l	hip_adduction_l	hip_rotation_l	knee_angle_l	knee_angle_l_beta	ankle_angle_l	subtalar_angle_l	mtp_angle_l	lumbar_extension	lumbar_bending	lumbar_rotation	arm_flex_r	arm_add_r	arm_rot_r	elbow_flex_r	pro_sup_r	wrist_flex_r	wrist_dev_r	arm_flex_l	arm_add_l	arm_rot_l	elbow_flex_l	pro_sup_l	wrist_flex_l	wrist_dev_l
12.73999999999982	-7.477897076721087	-6.804355082623268	28.95191894857136	0	0.9399999999999999	0	35.21732015864446	-9.782419192575526	-9.30706570990216	41.90417449443133	0.731365815258057	0	0	0	35.21732015864446	-9.782419192575526	-9.30706570990216	41.90417449443133	0.731365815258057	0	0	0	-8.744613389495132	-4.386085935788507	1.674937600945891	104.0608271503893	-0.01231559742713036	8.554947052679896	72.22528617342444	96.04650780902185	0	0	33.43599080705104	2.115538567394841	14.37537957452748	20.54347857246706	102.5042040701031	0	0
12.75999999999982	-7.472385961580773	-6.799734090743129	28.93162065362578	0	0.9399999999999999	0	35.21951069213776	-9.782585387059541	-9.307406058899456	41.90619846145027	0.7314011401464892	0	0	0	35.21951069213776	-9.782585387059541	-9.307406058899456	41.90619846145027	0.7314011401464892	0	0	0	-8.735608781587663	-4.388792102799016	1.695087370480252	104.2205187979256	-0.07836634380691353	8.460531198740778	72.31364843460433	96.36368878673203	0	0	33.44102743157254	2.120423257531297	14.40676721115342	20.5222436657739	102.4903395957935	0	0
12.77999999999982	-7.462782947533034	-6.788164640819793	28.9237635396134	0	0.9399999999999999	0	35.22057190206441	-9.782664913484002	-9.307569635555277	41.90718973349888	0.7314184411075205	0	0	0	35.22057190206441	-9.782664913484002	-9.307569635555277	41.90718973349888	0.7314184411075205	0	0	0	-8.721309670326587	-4.383996806659895	1.698340212633496	104.3269109672949	-0.07214142921195695	8.392897255807711	72.25276367009876	96.36168922269674	0	0	33.42504174316502	2.134237609285171	14.4242500775031	20.5058186945935	102.4868679430207	0	0
12.79999999999982	-7.452517629578781	-6.818761051117462	28.89711136394869	0	0.9399999999999999	0	35.2222314421963	-9.782789065211793	-9.307825177831715	41.90874162826775	0.7314455267808817	0	0	0	35.2222314421963	-9.782789065211793	-9.307825177831715	41.90874162826775	0.7314455267808817	0	0	0	-8.727563371648172	-4.41453320853275	1.690905530822969	104.482474389509	-0.05013943101852718	8.226686515377327	72.11834374850874	96.3451435993897	0	0	33.48050106016706	2.059858434751856	14.45000310138698	20.48459181875112	102.4908940158839	0	0
12.81999999999982	-7.450597155512601	-6.819786179994196	28.79043520658648	0	0.9399999999999999	0	35.22703661878865	-9.783153408729731	-9.308571677742723	41.91317796942591	0.7315229555408334	0	0	0	35.22703661878865	-9.783153408729731	-9.308571677742723	41.91317796942591	0.7315229555408334	0	0	0	-8.715911342384672	-4.438701434073706	1.794167139270773	104.6749902069422	-0.1463573423632225	7.902234859477218	73.0421969916838	98.24758143853153	0	0	33.56444885439098	2.047770174378646	14.4897866482571	20.39318977091935	102.438735532599	0	0
12.83999999999982	-7.455267091204844	-6.822221195366007	28.77819202238001	0	0.9399999999999999	0	35.23001287023735	-9.783378668195839	-9.309033565416735	41.91592850808448	0.7315709614966287	0	0	0	35.23001287023735	-9.783378668195839	-9.309033565416735	41.91592850808448	0.7315709614966287	0	0	0	-8.720155223176281	-4.440929633941808	1.807349780073387	104.8402680571589	-0.1730218755999438	7.742842001849713	73.13726125104068	98.66214306416055	0	0	33.62350414879754	2.044381655253299	14.51071892958551	20.38012895057116	102.4460454950277	0	0
12.85999999999981	-7.44938335212403	-6.822261139306788	28.78070277885244	0	0.9399999999999999	0	35.23387068150829	-9.783671639984146	-9.309633662413734	41.91948043184316	0.7316329542609976	0	0	0	35.23387068150829	-9.783671639984146	-9.309633662413734	41.91948043184316	0.7316329542609976	0	0	0	-8.715155676585116	-4.443856438315676	1.810018296912808	105.1092516916482	-0.1603642186261941	7.524222484116379	73.10184848240013	99.07307717738949	0	0	33.67126388252344	2.048219984600383	14.5014832077178	20.3313469691752	102.4741953020381	0	0
12.87999999999981	-7.452182989643737	-6.82393494136943	28.78370823639417	0	0.9399999999999999	0	35.23576651490178	-9.78381257893917	-9.309924560802754	41.92125858025981	0.7316639888054572	0	0	0	35.23576651490178	-9.78381257893917	-9.309924560802754	41.92125858025981	0.7316639888054572	0	0	0	-8.716511272498321	-4.448027458044819	1.830231938578319	105.140931460109	-0.2159958171800457	7.482600338269523	73.30410302494401	99.34108850069514	0	0	33.73020133685586	2.040995785295278	14.52367652988393	20.31799059270762	102.4874549458082	0	0
12.89999999999981	-7.43859484610755	-6.814523680589875	28.80646982242849	0	0.9399999999999999	0	35.2372108407043	-9.783920958031725	-9.310147523711414	41.92260193597185	0.7316874347856579	0	0	0	35.2372108407043	-9.783920958031725	-9.310147523711414	41.92260193597185	0.7316874347856579	0	0	0	-8.70053351083563	-4.445502432516419	1.826138636024186	105.2916307399964	-0.151950980280463	7.394318117475877	73.26961713508621	99.46301465390277	0	0	33.71289661701341	2.048322661409022	14.54329907058201	20.30019541712855	102.4881089078803	0	0
